<svg id="Capa_1" data-name="Capa 1" xmlns="http://www.w3.org/2000/svg" viewBox="0 0 428.25 343.64"><defs><style>.cls-1{fill:#1b1464;}.cls-2{fill:#009245;}</style></defs><title>LOGO ISOTIPO</title><path class="cls-1" d="M778.13,520.38s22.61,16.84,93.38,18.83l118.71-2.28-12,22.54s-16.55-26-70.48-9.42c0,0-31.39,16.27-38.52,41.09l-9.7-22-59.92,20.26,51.65,146.67s-15.12,5.71-23.4-15.12Z" transform="translate(-716.92 -498.34)"/><path class="cls-1" d="M1087.82,525.52h48.8s8.56,1.14,8.56,16V673.62s-1.28,16.55-16.12,18.83L918.1,725l-29.57-87.32s-2.23-26,14.61-30.6c0,0,19.73-7.92,30.57,16.34L964.82,713l67.06-21.69-31.39-89s-6.58-25.4,16.55-30c0,0,19.13-6.85,32.82,28.25L1079,680.18l62.78-21.69-40.24-115.07S1091.81,527.23,1087.82,525.52Z" transform="translate(-716.92 -498.34)"/><circle class="cls-2" cx="7.06" cy="7.06" r="7.06"/><path class="cls-1" d="M735,503.9,733.65,514,757,522.1,817,741s10,26.82,36.31,23.61l170.28,1.78v-8l-180-2.35s-16.59-6.7-19.37-19.19L765,515.11Z" transform="translate(-716.92 -498.34)"/><path class="cls-2" d="M847.41,777.21a32.39,32.39,0,1,0,32.39,32.39A32.39,32.39,0,0,0,847.41,777.21Zm0,49A16.64,16.64,0,1,1,864,809.59,16.64,16.64,0,0,1,847.41,826.23Z" transform="translate(-716.92 -498.34)"/><circle class="cls-1" cx="130.05" cy="311.68" r="10.56"/><path class="cls-2" d="M1082,775.49a32.39,32.39,0,1,0,32.39,32.39A32.39,32.39,0,0,0,1082,775.49Zm0,49a16.64,16.64,0,1,1,16.64-16.64A16.64,16.64,0,0,1,1082,824.52Z" transform="translate(-716.92 -498.34)"/><circle class="cls-1" cx="364.62" cy="309.97" r="10.56"/></svg>