<svg id="Capa_1" data-name="Capa 1" xmlns="http://www.w3.org/2000/svg" viewBox="0 0 428.25 457.26"><defs><style>.cls-1{fill:#1b1464;}.cls-2{fill:#009245;}</style></defs><title>LOGO COMPLETO</title><path class="cls-1" d="M293,520.38s22.61,16.84,93.38,18.83l118.71-2.28-12,22.54s-16.55-26-70.48-9.42c0,0-31.39,16.27-38.52,41.09l-9.7-22-59.92,20.26,51.65,146.67S351,741.82,342.74,721Z" transform="translate(-231.81 -384.73)"/><path class="cls-1" d="M602.7,525.52h48.8s8.56,1.14,8.56,16V673.62s-1.28,16.55-16.12,18.83L433,725l-29.57-87.32s-2.23-26,14.61-30.6c0,0,19.73-7.92,30.57,16.34L479.7,713l67.06-21.69-31.39-89s-6.58-25.4,16.55-30c0,0,19.13-6.85,32.82,28.25l29.11,79.62,62.78-21.69L616.4,543.43S606.69,527.23,602.7,525.52Z" transform="translate(-231.81 -384.73)"/><circle class="cls-2" cx="7.06" cy="120.67" r="7.06"/><path class="cls-1" d="M249.85,503.9,248.53,514l23.31,8.13L331.9,741s10,26.82,36.31,23.61l170.28,1.78v-8L358.5,756s-16.59-6.7-19.37-19.19L279.91,515.11Z" transform="translate(-231.81 -384.73)"/><path class="cls-2" d="M362.29,777.21a32.39,32.39,0,1,0,32.39,32.39A32.39,32.39,0,0,0,362.29,777.21Zm0,49a16.64,16.64,0,1,1,16.64-16.64A16.64,16.64,0,0,1,362.29,826.23Z" transform="translate(-231.81 -384.73)"/><circle class="cls-1" cx="130.05" cy="425.29" r="10.56"/><path class="cls-2" d="M596.85,775.49a32.39,32.39,0,1,0,32.39,32.39A32.39,32.39,0,0,0,596.85,775.49Zm0,49a16.64,16.64,0,1,1,16.64-16.64A16.64,16.64,0,0,1,596.85,824.52Z" transform="translate(-231.81 -384.73)"/><circle class="cls-1" cx="364.62" cy="423.58" r="10.56"/><path class="cls-2" d="M393.88,437.14H356V384.73h37.91v10.14H369.41v9h22.7v10.14h-22.7v13h24.47Z" transform="translate(-231.81 -384.73)"/><path class="cls-2" d="M412.45,437.14H399.74V384.73h12.71Z" transform="translate(-231.81 -384.73)"/><path class="cls-2" d="M348.06,484.82H334.61v-35.1L324.9,472.5h-9.33l-9.72-22.78v35.1H293.11V432.41h15.7l11.79,26.3,11.76-26.3h15.7Z" transform="translate(-231.81 -384.73)"/><path class="cls-2" d="M378.31,480.63q-1,.77-2.53,1.87a18.46,18.46,0,0,1-2.85,1.72,18,18,0,0,1-3.87,1.25,22.31,22.31,0,0,1-4.4.4,13.44,13.44,0,0,1-9.43-3.49,11.54,11.54,0,0,1-3.8-8.91,12,12,0,0,1,1.94-7.08,13,13,0,0,1,5.49-4.33,31,31,0,0,1,8.73-2.25q5.21-.67,10.81-1v-.21a4.56,4.56,0,0,0-2.68-4.52,19.35,19.35,0,0,0-7.89-1.25,22.5,22.5,0,0,0-6.69,1.11q-3.56,1.11-5.1,1.71h-1.16v-9.54q2-.53,6.53-1.25a57.46,57.46,0,0,1,9.06-.72q10.81,0,15.61,3.33t4.81,10.44v26.89H378.31Zm0-6.15v-8.21q-2.57.21-5.56.58a26.77,26.77,0,0,0-4.54.86,6.26,6.26,0,0,0-2.9,1.74,4.38,4.38,0,0,0-1,3,7.79,7.79,0,0,0,.21,2,3,3,0,0,0,1.06,1.47,5.13,5.13,0,0,0,1.94,1,13.48,13.48,0,0,0,3.52.33,10.43,10.43,0,0,0,3.85-.77A12,12,0,0,0,378.31,474.48Z" transform="translate(-231.81 -384.73)"/><path class="cls-2" d="M415.38,470.85l9-25.55h13l-22,54H401.72L408,484.52l-15.38-39.23h13.31Z" transform="translate(-231.81 -384.73)"/><path class="cls-2" d="M480.74,465.07q0,9.75-5.69,15.37t-16,5.61q-10.28,0-16-5.61t-5.69-15.37q0-9.82,5.72-15.42t15.93-5.6q10.35,0,16,5.63T480.74,465.07Zm-15.59,9.61A10.17,10.17,0,0,0,467,471a22.18,22.18,0,0,0,.62-5.9,22.91,22.91,0,0,0-.63-5.84,10.23,10.23,0,0,0-1.76-3.77,6.18,6.18,0,0,0-2.71-2,9.59,9.59,0,0,0-3.41-.6,10,10,0,0,0-3.26.49,6.59,6.59,0,0,0-2.73,2,10.1,10.1,0,0,0-1.85,3.77,22.26,22.26,0,0,0-.69,6,23.17,23.17,0,0,0,.6,5.61,9.86,9.86,0,0,0,1.76,3.82,6.69,6.69,0,0,0,2.69,2,10,10,0,0,0,6.86.05A6,6,0,0,0,465.14,474.68Z" transform="translate(-231.81 -384.73)"/><path class="cls-2" d="M515.69,457.37h-1.12a11.38,11.38,0,0,0-2.6-.42q-1.79-.14-3-.14a28.85,28.85,0,0,0-4.78.35,27,27,0,0,0-4.46,1.2v26.47H487V445.29h12.71v5.81a26.39,26.39,0,0,1,7.27-4.77,16.08,16.08,0,0,1,5.69-1.18q.67,0,1.51,0t1.47.11Z" transform="translate(-231.81 -384.73)"/><path class="cls-2" d="M537.11,432.26v.43l-7.53,8h-5.26l5.28-8.41ZM534,484.82H521.28V445.29H534Z" transform="translate(-231.81 -384.73)"/><path class="cls-2" d="M577.3,472.22q0,6.13-5.49,9.87t-15,3.75a42.91,42.91,0,0,1-9.57-1,36.43,36.43,0,0,1-6.9-2.18V472.26h1.16q1,.67,2.2,1.46a22.27,22.27,0,0,0,3.54,1.71,29.07,29.07,0,0,0,4.47,1.39,23.58,23.58,0,0,0,5.35.58,13.92,13.92,0,0,0,5.53-.83,2.63,2.63,0,0,0,1.79-2.45,2.28,2.28,0,0,0-1.06-2.09,13.8,13.8,0,0,0-4-1.25q-1.41-.32-3.82-.69a41.14,41.14,0,0,1-4.38-.9q-5.38-1.41-8-4.38a10.84,10.84,0,0,1-2.61-7.41q0-5.7,5.4-9.49t14.77-3.78a39.31,39.31,0,0,1,8.5.9,34.4,34.4,0,0,1,6.35,1.92v10h-1.09a25.82,25.82,0,0,0-6.42-3.15,22.77,22.77,0,0,0-7.3-1.21,13.83,13.83,0,0,0-5.16.84q-2.09.84-2.09,2.39a2.55,2.55,0,0,0,1,2.15,12.92,12.92,0,0,0,4.47,1.48q1.94.39,4.17.76t4.49.93a14.1,14.1,0,0,1,7.39,4.1A10.37,10.37,0,0,1,577.3,472.22Z" transform="translate(-231.81 -384.73)"/><path class="cls-2" d="M610.79,484.93a36,36,0,0,1-4.33.82,44.32,44.32,0,0,1-5.6.3q-7.39,0-11-3t-3.61-10.24V454.34H581v-8.59h5.21v-11.3H599v11.3h11.83v8.59H599v14q0,2.08,0,3.63a7.48,7.48,0,0,0,.56,2.79,3.9,3.9,0,0,0,1.74,2,7.36,7.36,0,0,0,3.63.72,10.62,10.62,0,0,0,2.58-.42,10.73,10.73,0,0,0,2.23-.77h1.05Z" transform="translate(-231.81 -384.73)"/><path class="cls-2" d="M640.61,480.6q-1,.77-2.53,1.87a18.46,18.46,0,0,1-2.85,1.72,18,18,0,0,1-3.87,1.25,22.31,22.31,0,0,1-4.4.4,13.44,13.44,0,0,1-9.43-3.49,11.54,11.54,0,0,1-3.8-8.91,12,12,0,0,1,1.94-7.08,13,13,0,0,1,5.49-4.33,31,31,0,0,1,8.73-2.25q5.21-.67,10.81-1v-.21a4.56,4.56,0,0,0-2.68-4.52,19.35,19.35,0,0,0-7.89-1.25,22.5,22.5,0,0,0-6.69,1.11q-3.56,1.11-5.1,1.71h-1.16V446.1q2-.53,6.53-1.25a57.46,57.46,0,0,1,9.06-.72q10.81,0,15.61,3.33t4.81,10.44v26.89H640.61Zm0-6.15v-8.21q-2.57.21-5.56.58a26.77,26.77,0,0,0-4.54.86,6.26,6.26,0,0,0-2.9,1.74,4.38,4.38,0,0,0-1,3,7.79,7.79,0,0,0,.21,2,3,3,0,0,0,1.06,1.47,5.13,5.13,0,0,0,1.94,1,13.48,13.48,0,0,0,3.52.33,10.43,10.43,0,0,0,3.85-.77A12,12,0,0,0,640.61,474.45Z" transform="translate(-231.81 -384.73)"/></svg>